<?xml version="1.0" encoding="UTF-8"?>
<svg version="1.1" viewBox="0 0 2048 2048" width="1280" height="1280" xmlns="http://www.w3.org/2000/svg">
<path transform="translate(969,651)" d="m0 0 4 1v46l-16 11-11 9-13 12-7 7-9 11-11 15-8 13-10 19-8 21-6 21-4 24-1 15v17l25 3 13 1h49l29-3 31-6 25-7 23-8 32-14 23-12 12-8 13-10 14-12 8-8 9-11 8-10 10-15 4-7h1l2 9 2 7 6 24 2 5-1 7-7 19-8 17-11 18-10 13-11 12-15 15-17 13-17 11-18 10-21 9-23 7-27 6-20 3-25 2h-30l-25-2-31-5-32-8-36-12-55-22-36-14-21-7-24-5-10-1h-15l-15 2-17 5-14 7-2-1 1-4-3-10v-4l-2-1 14-9 14-7 15-5 20-4 9-1h25l28 3 39 7 15 3v-20l3-23 6-25 7-20 8-18 11-19 12-17 9-11 12-13 14-13 13-10 15-10 18-10 23-10 19-6z" fill="#0CE691"/>
<path transform="translate(1232,900)" d="m0 0h1l4 13 9 26 1 5-6 18-9 20-11 20-12 17-9 11-11 12-11 11-11 9-15 11-20 12-19 9-20 7-19 5-17 3-10 1h-41l-27-4-5-1 3-1-2-7 1-2h-2l-1-2v-6h-2l-3-10 1-2h-2l-5-15-3-8 44-1 26-3 29-6 23-7 27-11 25-13 21-14 14-11 10-9 8-7 7-8 11-13 11-16 9-16 7-14z" fill="#501A30"/>
<path transform="translate(761,1256)" d="m0 0h35l20 59 9 26v3h2l1-5 17-47 13-35 1-1h44l7 18 18 49 7 19 1 1 18-53 12-34h35l-1 7-22 69-20 64-2 6h-35l-4-9-23-63-13-35-9 24-19 52-11 30-1 1h-35l-10-31-20-63-15-48z" fill="#11101A"/>
<path transform="translate(969,651)" d="m0 0 4 1v46l-16 11-11 9-13 12-7 7-9 11-11 15-8 13-10 19-8 21-6 21-4 24-2 33-35-6-39-8-3-1v-21l3-23 6-25 7-20 8-18 11-19 12-17 9-11 12-13 14-13 13-10 15-10 18-10 23-10 19-6z" fill="#A25E74"/>
<path transform="translate(1176,1256)" d="m0 0h96l15 3 14 7 9 8 6 10 3 8 1 4v21l-4 12-6 10-7 7-5 4 14 28 10 19 2 5h-38l-9-17-12-26h-54l-1 43h-34zm34 32v38l1 1h57l9-3 6-7 2-6v-8l-3-8-6-5-7-2z" fill="#100F19"/>
<path transform="translate(1487,1256)" d="m0 0h82l14 2 15 5 12 7 12 11 9 14 5 13 2 9v24l-4 15-7 14-8 10-9 8-14 8-12 4-11 2h-86zm35 33v81h44l11-2 11-6 8-8 5-10 2-7v-16l-4-12-6-8-8-7-9-4-4-1z" fill="#12101A"/>
<path transform="translate(410,1256)" d="m0 0h82l17 3 13 5 12 7 12 12 8 13 5 14 2 11v16l-3 15-6 14-8 11-10 10-13 8-15 5-11 2h-85zm34 33v80l1 1h44l13-3 10-6 8-9 5-12 1-6v-10l-3-12-7-11-10-8-12-4z" fill="#100F1A"/>
<path transform="translate(1066,1255)" d="m0 0h27l18 4 11 5 10 6 10 9 8 11 6 13 3 12 1 17-2 16-5 15-9 14-10 10-11 7-14 6-14 3-10 1h-11l-15-2-14-4-14-7-11-9-9-11-7-14-3-11-1-7v-20l3-14 5-12 7-11 11-11 11-7 12-5zm5 34-12 3-10 6-8 8-5 11-1 5v15l4 12 8 10 9 6 13 4h22l12-4 9-6 7-8 4-8 2-10-1-14-5-12-8-9-14-7-8-2z" fill="#11101A"/>
<path transform="translate(576,1256)" d="m0 0h91l15 3 14 7 11 10 8 14 3 12v17l-3 12-7 13-10 10-10 6-11 4-4 1-61 1-1 36h-35zm35 32v45h55l10-5 5-7 2-7v-7l-3-9-4-5-10-5z" fill="#110F19"/>
<path transform="translate(1091,1031)" d="m0 0 3 1 1 5 18 52v5l-20 7-19 5-17 3-10 1h-41l-27-4-5-1 3-1-2-7 1-2h-2l-1-2v-6h-2l-3-10 1-2h-2l-5-15-3-8 44-1 26-3 29-6 23-7z" fill="#501A30"/>
<path transform="translate(1340,1256)" d="m0 0h35v113h97v33h-132z" fill="#100F19"/>
<path transform="translate(1150 1e3)" d="m0 0h2l7 19 8 24 5 13-1 3-16 12-21 13-19 9-3-1-2-9-16-46-1-5 3-3 18-8 19-10z" fill="#100F19"/>
<path transform="translate(1014,1050)" d="m0 0 11 1 5 13 10 29 4 14 3 3h-41l-27-4-5-1 3-1-2-7 1-2h-2l-1-2v-6h-2l-3-10 1-2h-2l-5-15-3-8 44-1z" fill="#A15D73"/>
<path transform="translate(1197,766)" d="m0 0h1l2 9 2 7 6 24 2 5-1 7-7 19-8 17-11 18-10 13-3-3-3-8-5-23-2-6-5-21 1-5 10-10 9-11 8-10 10-15z" fill="#7FE9BF"/>
<path transform="translate(684,865)" d="m0 0h25l11 1 3 5 8 31-1 6-11-3-19-5-21-3h-15l-15 2-17 5-14 7-2-1 1-4-3-10v-4l-2-1 14-9 14-7 15-5 20-4z" fill="#7FE9BF"/>
<path transform="translate(1232,900)" d="m0 0h1l4 13 9 26 1 5-6 18-9 20-11 20-3 3-4-6-14-40v-3l3-6 11-15 10-18 7-14z" fill="#A15D73"/>
<path transform="translate(953,1051)" d="m0 0h6v1h-6z" fill="#A25E74"/>
<path transform="translate(973,650)" d="m0 0 4 1z" fill="#A25E74"/>
<path transform="translate(1247,938)" d="m0 0" fill="#A25E74"/>
<path transform="translate(1211,805)" d="m0 0" fill="#80EAC0"/>
<path transform="translate(970,1103)" d="m0 0 2 1z" fill="#A25E74"/>
<path transform="translate(1248,935)" d="m0 0" fill="#A25E74"/>
<path transform="translate(611,913)" d="m0 0 2 1z" fill="#80EAC0"/>
<path transform="translate(614,911)" d="m0 0 2 1z" fill="#80EAC0"/>
<path transform="translate(1233,898)" d="m0 0" fill="#A25E74"/>
<path transform="translate(609,893)" d="m0 0 2 1z" fill="#80EAC0"/>
<path transform="translate(1210,809)" d="m0 0" fill="#80EAC0"/>
<path transform="translate(1198,764)" d="m0 0" fill="#80EAC0"/>
<path transform="translate(976,694)" d="m0 0 2 1z" fill="#A25E74"/>
<path transform="translate(979,649)" d="m0 0 2 1z" fill="#A25E74"/>
<path transform="translate(1249,932)" d="m0 0" fill="#A25E74"/>
<path transform="translate(607,916)" d="m0 0" fill="#80EAC0"/>
<path transform="translate(610,914)" d="m0 0" fill="#80EAC0"/>
<path transform="translate(613,912)" d="m0 0" fill="#80EAC0"/>
<path transform="translate(602,899)" d="m0 0" fill="#80EAC0"/>
<path transform="translate(603,898)" d="m0 0" fill="#80EAC0"/>
<path transform="translate(604,897)" d="m0 0" fill="#80EAC0"/>
<path transform="translate(1234,896)" d="m0 0" fill="#A25E74"/>
<path transform="translate(607,895)" d="m0 0" fill="#80EAC0"/>
<path transform="translate(608,894)" d="m0 0" fill="#80EAC0"/>
<path transform="translate(1235,893)" d="m0 0" fill="#A25E74"/>
<path transform="translate(611,892)" d="m0 0" fill="#80EAC0"/>
<path transform="translate(1212,802)" d="m0 0" fill="#80EAC0"/>
<path transform="translate(1199,762)" d="m0 0" fill="#80EAC0"/>
<path transform="translate(1200,760)" d="m0 0" fill="#80EAC0"/>
<path transform="translate(1201,758)" d="m0 0" fill="#80EAC0"/>
<path transform="translate(973,696)" d="m0 0" fill="#A25E74"/>
<path transform="translate(975,695)" d="m0 0" fill="#A25E74"/>
<path transform="translate(978,693)" d="m0 0" fill="#A25E74"/>
<path transform="translate(980,692)" d="m0 0" fill="#A25E74"/>
</svg>
